:FULLY-SPECIFIED
:FORCE-ALL-JOINTS-BE-3DOF
:DEGREES
883
root 3.61163 16.4141 30.5224 -9.03436 13.9535 360.917
lfemur -12.2343 3.94733 -12.8581
ltibia 32.4619 0 0
lfoot -3.65499 -31.5537 0
ltoes 22.3628 0 0
rfemur -51.7917 -9.79317 17.0329
rtibia 37.0043 0 0
rfoot 2.26438 6.58516 0
rtoes -33.7775 0 0
lowerback 9.9114 -0.829538 -4.84583
upperback 3.08557 -1.68042 -2.85474
thorax -2.15563 -0.827943 0.0574753
lowerneck -7.31147 -3.39888 1.48146
upperneck 5.32787 -5.02001 4.57722
head 3.10678 -2.28392 0.983794
lclavicle 5.13785e-014 -2.30122e-014 0
lhumerus -39.1848 -28.7818 88.2289
lradius 60.2599 0 0
lwrist 20.9202 0 0
lhand 19.6452 9.91897 0
lfingers 7.12502 0 0
lthumb 43.9182 31.6381 0
rclavicle 5.13785e-014 -2.30122e-014 0
rhumerus -53.7879 4.17193 -62.8079
rradius 71.9825 0 0
rwrist 4.27262 0 0
rhand 3.32093 -22.5094 0
rfingers 7.12502 0 0
rthumb 28.7664 -770.306 0
884
root 3.58318 16.4069 30.5782 -8.69774 13.8246 360.963
lfemur -12.1906 3.66383 -12.4006
ltibia 32.1431 0 0
lfoot -3.30927 -32.0676 0
ltoes 22.5317 0 0
rfemur -50.83 -9.53307 16.3128
rtibia 37.0151 0 0
rfoot 2.47852 6.09218 0
rtoes -33.8699 0 0
lowerback 9.59407 -0.80302 -4.78937
upperback 2.9714 -1.62786 -2.92208
thorax -2.10115 -0.801913 -0.051209
lowerneck -7.30729 -3.43588 1.40909
upperneck 5.29422 -5.0637 4.62091
head 3.09978 -2.30634 1.0087
lclavicle 5.0225e-014 -2.29031e-014 0
lhumerus -39.5286 -28.9827 88.7626
lradius 60.2282 0 0
lwrist 20.7361 0 0
lhand 20.2163 10.2964 0
lfingers 7.12502 0 0
lthumb 44.4361 31.7115 0
rclavicle 5.0225e-014 -2.29031e-014 0
rhumerus -54.0411 5.05369 -63.9038
rradius 73.277 0 0
rwrist 4.29645 0 0
rhand 3.3772 -22.1478 0
rfingers 7.12502 0 0
rthumb 28.8202 -769.935 0
885
root 3.55473 16.3997 30.634 -8.36112 13.6958 361.01
lfemur -12.1469 3.38033 -11.9432
ltibia 31.8244 0 0
lfoot -2.96356 -32.5814 0
ltoes 22.7006 0 0
rfemur -49.8683 -9.27297 15.5928
rtibia 37.026 0 0
rfoot 2.69266 5.5992 0
rtoes -33.9623 0 0
lowerback 9.27674 -0.776502 -4.7329
upperback 2.85724 -1.57531 -2.98942
thorax -2.04666 -0.775883 -0.159893
lowerneck -7.30312 -3.47288 1.33672
upperneck 5.26057 -5.1074 4.6646
head 3.09277 -2.32877 1.03361
lclavicle 4.90716e-014 -2.2794e-014 0
lhumerus -39.8724 -29.1835 89.2963
lradius 60.1964 0 0
lwrist 20.552 0 0
lhand 20.7874 10.6738 0
lfingers 7.12502 0 0
lthumb 44.9541 31.7849 0
rclavicle 4.90716e-014 -2.2794e-014 0
rhumerus -54.2944 5.93546 -64.9997
rradius 74.5714 0 0
rwrist 4.32029 0 0
rhand 3.43347 -21.7862 0
rfingers 7.12502 0 0
rthumb 28.8739 -769.564 0
886
root 3.52628 16.3925 30.6898 -8.02449 13.5669 361.057
lfemur -12.1032 3.09683 -11.4857
ltibia 31.5057 0 0
lfoot -2.61785 -33.0953 0
ltoes 22.8695 0 0
rfemur -48.9066 -9.01286 14.8727
rtibia 37.0368 0 0
rfoot 2.90681 5.10622 0
rtoes -34.0547 0 0
lowerback 8.95942 -0.749984 -4.67643
upperback 2.74308 -1.52276 -3.05675
thorax -1.99218 -0.749853 -0.268578
lowerneck -7.29894 -3.50987 1.26435
upperneck 5.22692 -5.1511 4.70829
head 3.08576 -2.35119 1.05852
lclavicle 4.79182e-014 -2.26848e-014 0
lhumerus -40.2162 -29.3843 89.83
lradius 60.1647 0 0
lwrist 20.368 0 0
lhand 21.3584 11.0512 0
lfingers 7.12502 0 0
lthumb 45.472 31.8582 0
rclavicle 4.79182e-014 -2.26848e-014 0
rhumerus -54.5476 6.81723 -66.0956
rradius 75.8658 0 0
rwrist 4.34412 0 0
rhand 3.48975 -21.4245 0
rfingers 7.12502 0 0
rthumb 28.9276 -769.193 0
887
root 3.49783 16.3853 30.7456 -7.68787 13.438 361.104
lfemur -12.0595 2.81333 -11.0283
ltibia 31.1869 0 0
lfoot -2.27214 -33.6092 0
ltoes 23.0384 0 0
rfemur -47.9449 -8.75276 14.1526
rtibia 37.0476 0 0
rfoot 3.12095 4.61324 0
rtoes -34.1471 0 0
lowerback 8.64209 -0.723465 -4.61997
upperback 2.62892 -1.47021 -3.12409
thorax -1.9377 -0.723823 -0.377262
lowerneck -7.29477 -3.54687 1.19198
upperneck 5.19327 -5.1948 4.75198
head 3.07876 -2.37361 1.08343
lclavicle 4.67647e-014 -2.25757e-014 0
lhumerus -40.56 -29.5851 90.3637
lradius 60.133 0 0
lwrist 20.1839 0 0
lhand 21.9295 11.4286 0
lfingers 7.12502 0 0
lthumb 45.9899 31.9316 0
rclavicle 4.67647e-014 -2.25757e-014 0
rhumerus -54.8009 7.69899 -67.1915
rradius 77.1603 0 0
rwrist 4.36795 0 0
rhand 3.54602 -21.0629 0
rfingers 7.12502 0 0
rthumb 28.9814 -768.822 0
888
root 3.46938 16.3781 30.8014 -7.35125 13.3091 361.151
lfemur -12.0158 2.52983 -10.5708
ltibia 30.8682 0 0
lfoot -1.92643 -34.123 0
ltoes 23.2073 0 0
rfemur -46.9832 -8.49266 13.4326
rtibia 37.0585 0 0
rfoot 3.33509 4.12025 0
rtoes -34.2395 0 0
lowerback 8.32476 -0.696947 -4.5635
upperback 2.51476 -1.41766 -3.19143
thorax -1.88321 -0.697794 -0.485946
lowerneck -7.29059 -3.58387 1.11962
upperneck 5.15962 -5.2385 4.79566
head 3.07175 -2.39604 1.10834
lclavicle 4.56113e-014 -2.24666e-014 0
lhumerus -40.9038 -29.7859 90.8974
lradius 60.1013 0 0
lwrist 19.9998 0 0
lhand 22.5006 11.806 0
lfingers 7.12502 0 0
lthumb 46.5079 32.005 0
rclavicle 4.56113e-014 -2.24666e-014 0
rhumerus -55.0541 8.58076 -68.2873
rradius 78.4547 0 0
rwrist 4.39179 0 0
rhand 3.60229 -20.7013 0
rfingers 7.12502 0 0
rthumb 29.0351 -768.451 0
889
root 3.44093 16.3709 30.8572 -7.01463 13.1802 361.198
lfemur -11.9721 2.24633 -10.1134
ltibia 30.5495 0 0
lfoot -1.58072 -34.6369 0
ltoes 23.3762 0 0
rfemur -46.0215 -8.23256 12.7125
rtibia 37.0693 0 0
rfoot 3.54923 3.62727 0
rtoes -34.3319 0 0
lowerback 8.00744 -0.670429 -4.50703
upperback 2.4006 -1.36511 -3.25877
thorax -1.82873 -0.671764 -0.594631
lowerneck -7.28642 -3.62087 1.04725
upperneck 5.12597 -5.2822 4.83935
head 3.06474 -2.41846 1.13324
lclavicle 4.44578e-014 -2.23574e-014 0
lhumerus -41.2476 -29.9867 91.4311
lradius 60.0695 0 0
lwrist 19.8157 0 0
lhand 23.0716 12.1834 0
lfingers 7.12502 0 0
lthumb 47.0258 32.0784 0
rclavicle 4.44578e-014 -2.23574e-014 0
rhumerus -55.3074 9.46252 -69.3832
rradius 79.7491 0 0
rwrist 4.41562 0 0
rhand 3.65857 -20.3396 0
rfingers 7.12502 0 0
rthumb 29.0888 -768.08 0
890
root 3.41248 16.3637 30.913 -6.678 13.0513 361.245
lfemur -11.9284 1.96283 -9.65595
ltibia 30.2308 0 0
lfoot -1.23501 -35.1507 0
ltoes 23.5451 0 0
rfemur -45.0599 -7.97245 11.9925
rtibia 37.0802 0 0
rfoot 3.76337 3.13429 0
rtoes -34.4244 0 0
lowerback 7.69011 -0.643911 -4.45056
upperback 2.28644 -1.31256 -3.3261
thorax -1.77424 -0.645734 -0.703315
lowerneck -7.28225 -3.65786 0.974879
upperneck 5.09232 -5.3259 4.88304
head 3.05773 -2.44088 1.15815
lclavicle 4.33044e-014 -2.22483e-014 0
lhumerus -41.5914 -30.1875 91.9648
lradius 60.0378 0 0
lwrist 19.6317 0 0
lhand 23.6427 12.5609 0
lfingers 7.12502 0 0
lthumb 47.5437 32.1517 0
rclavicle 4.33044e-014 -2.22483e-014 0
rhumerus -55.5606 10.3443 -70.4791
rradius 81.0435 0 0
rwrist 4.43946 0 0
rhand 3.71484 -19.978 0
rfingers 7.12502 0 0
rthumb 29.1425 -767.709 0
891
root 3.38403 16.3565 30.9688 -6.34138 12.9224 361.292
lfemur -11.8847 1.67933 -9.1985
ltibia 29.912 0 0
lfoot -0.889294 -35.6646 0
ltoes 23.714 0 0
rfemur -44.0982 -7.71235 11.2724
rtibia 37.091 0 0
rfoot 3.97752 2.64131 0
rtoes -34.5168 0 0
lowerback 7.37278 -0.617393 -4.3941
upperback 2.17228 -1.26 -3.39344
thorax -1.71976 -0.619704 -0.811999
lowerneck -7.27807 -3.69486 0.902511
upperneck 5.05867 -5.36959 4.92673
head 3.05073 -2.46331 1.18306
lclavicle 4.21509e-014 -2.21391e-014 0
lhumerus -41.9352 -30.3883 92.4985
lradius 60.0061 0 0
lwrist 19.4476 0 0
lhand 24.2138 12.9383 0
lfingers 7.12502 0 0
lthumb 48.0617 32.2251 0
rclavicle 4.21509e-014 -2.21391e-014 0
rhumerus -55.8139 11.2261 -71.575
rradius 82.338 0 0
rwrist 4.46329 0 0
rhand 3.77112 -19.6164 0
rfingers 7.12502 0 0
rthumb 29.1963 -767.338 0
892
root 3.35558 16.3493 31.0246 -6.00476 12.7935 361.339
lfemur -11.841 1.39583 -8.74106
ltibia 29.5933 0 0
lfoot -0.543582 -36.1785 0
ltoes 23.8829 0 0
rfemur -43.1365 -7.45225 10.5523
rtibia 37.1018 0 0
rfoot 4.19166 2.14832 0
rtoes -34.6092 0 0
lowerback 7.05546 -0.590875 -4.33763
upperback 2.05812 -1.20745 -3.46078
thorax -1.66528 -0.593674 -0.920684
lowerneck -7.2739 -3.73186 0.830142
upperneck 5.02502 -5.41329 4.97042
head 3.04372 -2.48573 1.20797
lclavicle 4.09975e-014 -2.203e-014 0
lhumerus -42.279 -30.5891 93.0322
lradius 59.9743 0 0
lwrist 19.2635 0 0
lhand 24.7848 13.3157 0
lfingers 7.12502 0 0
lthumb 48.5796 32.2985 0
rclavicle 4.09975e-014 -2.203e-014 0
rhumerus -56.0671 12.1078 -72.6709
rradius 83.6324 0 0
rwrist 4.48712 0 0
rhand 3.82739 -19.2547 0
rfingers 7.12502 0 0
rthumb 29.25 -766.967 0
893
root 3.32713 16.3421 31.0804 -5.66814 12.6646 361.386
lfemur -11.7973 1.11233 -8.28361
ltibia 29.2746 0 0
lfoot -0.197871 -36.6923 0
ltoes 24.0518 0 0
rfemur -42.1748 -7.19215 9.83228
rtibia 37.1127 0 0
rfoot 4.4058 1.65534 0
rtoes -34.7016 0 0
lowerback 6.73813 -0.564357 -4.28116
upperback 1.94396 -1.1549 -3.52812
thorax -1.61079 -0.567644 -1.02937
lowerneck -7.26972 -3.76886 0.757774
upperneck 4.99137 -5.45699 5.01411
head 3.03671 -2.50815 1.23288
lclavicle 3.98441e-014 -2.19209e-014 0
lhumerus -42.6228 -30.7899 93.5659
lradius 59.9426 0 0
lwrist 19.0794 0 0
lhand 25.3559 13.6931 0
lfingers 7.12502 0 0
lthumb 49.0975 32.3719 0
rclavicle 3.98441e-014 -2.19209e-014 0
rhumerus -56.3204 12.9896 -73.7668
rradius 84.9268 0 0
rwrist 4.51096 0 0
rhand 3.88366 -18.8931 0
rfingers 7.12502 0 0
rthumb 29.3037 -766.596 0
894
root 3.29868 16.3349 31.1361 -5.33151 12.5357 361.432
lfemur -11.7537 0.828835 -7.82616
ltibia 28.9558 0 0
lfoot 0.147841 -37.2062 0
ltoes 24.2207 0 0
rfemur -41.2131 -6.93205 9.11222
rtibia 37.1235 0 0
rfoot 4.61994 1.16236 0
rtoes -34.794 0 0
lowerback 6.4208 -0.537838 -4.2247
upperback 1.82979 -1.10235 -3.59545
thorax -1.55631 -0.541615 -1.13805
lowerneck -7.26555 -3.80585 0.685406
upperneck 4.95772 -5.50069 5.0578
head 3.02971 -2.53058 1.25779
lclavicle 3.86906e-014 -2.18117e-014 0
lhumerus -42.9666 -30.9908 94.0996
lradius 59.9109 0 0
lwrist 18.8954 0 0
lhand 25.927 14.0705 0
lfingers 7.12502 0 0
lthumb 49.6155 32.4452 0
rclavicle 3.86906e-014 -2.18117e-014 0
rhumerus -56.5736 13.8714 -74.8627
rradius 86.2213 0 0
rwrist 4.53479 0 0
rhand 3.93994 -18.5314 0
rfingers 7.12502 0 0
rthumb 29.3575 -766.225 0
